# Центр «Зотов» — naked building shell
# Generated by tools/gen_model.py
# R_out=20  R_in=6  H=38  units=Three.js scene units
# Floors 1/2/3/4 + mezzanines 1.5/2.5 + stair towers
# Vertices: 1600  Faces: 769

o ZotovCenter

v 20.0 0 -0.0
v 19.923894 0 -1.743115
v 19.696155 0 -3.472964
v 19.318517 0 -5.176381
v 18.793852 0 -6.840403
v 18.126156 0 -8.452365
v 17.320508 0 -10.0
v 16.383041 0 -11.471529
v 15.320889 0 -12.855752
v 14.142136 0 -14.142136
v 12.855752 0 -15.320889
v 11.471529 0 -16.383041
v 10.0 0 -17.320508
v 8.452365 0 -18.126156
v 6.840403 0 -18.793852
v 5.176381 0 -19.318517
v 3.472964 0 -19.696155
v 1.743115 0 -19.923894
v 0.0 0 -20.0
v -1.743115 0 -19.923894
v -3.472964 0 -19.696155
v -5.176381 0 -19.318517
v -6.840403 0 -18.793852
v -8.452365 0 -18.126156
v -10.0 0 -17.320508
v -11.471529 0 -16.383041
v -12.855752 0 -15.320889
v -14.142136 0 -14.142136
v -15.320889 0 -12.855752
v -16.383041 0 -11.471529
v -17.320508 0 -10.0
v -18.126156 0 -8.452365
v -18.793852 0 -6.840403
v -19.318517 0 -5.176381
v -19.696155 0 -3.472964
v -19.923894 0 -1.743115
v -20.0 0 -0.0
v -19.923894 0 1.743115
v -19.696155 0 3.472964
v -19.318517 0 5.176381
v -18.793852 0 6.840403
v -18.126156 0 8.452365
v -17.320508 0 10.0
v -16.383041 0 11.471529
v -15.320889 0 12.855752
v -14.142136 0 14.142136
v -12.855752 0 15.320889
v -11.471529 0 16.383041
v -10.0 0 17.320508
v -8.452365 0 18.126156
v -6.840403 0 18.793852
v -5.176381 0 19.318517
v -3.472964 0 19.696155
v -1.743115 0 19.923894
v -0.0 0 20.0
v 1.743115 0 19.923894
v 3.472964 0 19.696155
v 5.176381 0 19.318517
v 6.840403 0 18.793852
v 8.452365 0 18.126156
v 10.0 0 17.320508
v 11.471529 0 16.383041
v 12.855752 0 15.320889
v 14.142136 0 14.142136
v 15.320889 0 12.855752
v 16.383041 0 11.471529
v 17.320508 0 10.0
v 18.126156 0 8.452365
v 18.793852 0 6.840403
v 19.318517 0 5.176381
v 19.696155 0 3.472964
v 19.923894 0 1.743115
v 20.0 0 0.0
v 20.0 38.0 -0.0
v 19.923894 38.0 -1.743115
v 19.696155 38.0 -3.472964
v 19.318517 38.0 -5.176381
v 18.793852 38.0 -6.840403
v 18.126156 38.0 -8.452365
v 17.320508 38.0 -10.0
v 16.383041 38.0 -11.471529
v 15.320889 38.0 -12.855752
v 14.142136 38.0 -14.142136
v 12.855752 38.0 -15.320889
v 11.471529 38.0 -16.383041
v 10.0 38.0 -17.320508
v 8.452365 38.0 -18.126156
v 6.840403 38.0 -18.793852
v 5.176381 38.0 -19.318517
v 3.472964 38.0 -19.696155
v 1.743115 38.0 -19.923894
v 0.0 38.0 -20.0
v -1.743115 38.0 -19.923894
v -3.472964 38.0 -19.696155
v -5.176381 38.0 -19.318517
v -6.840403 38.0 -18.793852
v -8.452365 38.0 -18.126156
v -10.0 38.0 -17.320508
v -11.471529 38.0 -16.383041
v -12.855752 38.0 -15.320889
v -14.142136 38.0 -14.142136
v -15.320889 38.0 -12.855752
v -16.383041 38.0 -11.471529
v -17.320508 38.0 -10.0
v -18.126156 38.0 -8.452365
v -18.793852 38.0 -6.840403
v -19.318517 38.0 -5.176381
v -19.696155 38.0 -3.472964
v -19.923894 38.0 -1.743115
v -20.0 38.0 -0.0
v -19.923894 38.0 1.743115
v -19.696155 38.0 3.472964
v -19.318517 38.0 5.176381
v -18.793852 38.0 6.840403
v -18.126156 38.0 8.452365
v -17.320508 38.0 10.0
v -16.383041 38.0 11.471529
v -15.320889 38.0 12.855752
v -14.142136 38.0 14.142136
v -12.855752 38.0 15.320889
v -11.471529 38.0 16.383041
v -10.0 38.0 17.320508
v -8.452365 38.0 18.126156
v -6.840403 38.0 18.793852
v -5.176381 38.0 19.318517
v -3.472964 38.0 19.696155
v -1.743115 38.0 19.923894
v -0.0 38.0 20.0
v 1.743115 38.0 19.923894
v 3.472964 38.0 19.696155
v 5.176381 38.0 19.318517
v 6.840403 38.0 18.793852
v 8.452365 38.0 18.126156
v 10.0 38.0 17.320508
v 11.471529 38.0 16.383041
v 12.855752 38.0 15.320889
v 14.142136 38.0 14.142136
v 15.320889 38.0 12.855752
v 16.383041 38.0 11.471529
v 17.320508 38.0 10.0
v 18.126156 38.0 8.452365
v 18.793852 38.0 6.840403
v 19.318517 38.0 5.176381
v 19.696155 38.0 3.472964
v 19.923894 38.0 1.743115
v 20.0 38.0 0.0
v 15.0 0 -0.0
v 14.94292 0 -1.307336
v 14.772116 0 -2.604723
v 14.488887 0 -3.882286
v 14.095389 0 -5.130302
v 13.594617 0 -6.339274
v 12.990381 0 -7.5
v 12.287281 0 -8.603647
v 11.490667 0 -9.641814
v 10.606602 0 -10.606602
v 9.641814 0 -11.490667
v 8.603647 0 -12.287281
v 7.5 0 -12.990381
v 6.339274 0 -13.594617
v 5.130302 0 -14.095389
v 3.882286 0 -14.488887
v 2.604723 0 -14.772116
v 1.307336 0 -14.94292
v 0.0 0 -15.0
v -1.307336 0 -14.94292
v -2.604723 0 -14.772116
v -3.882286 0 -14.488887
v -5.130302 0 -14.095389
v -6.339274 0 -13.594617
v -7.5 0 -12.990381
v -8.603647 0 -12.287281
v -9.641814 0 -11.490667
v -10.606602 0 -10.606602
v -11.490667 0 -9.641814
v -12.287281 0 -8.603647
v -12.990381 0 -7.5
v -13.594617 0 -6.339274
v -14.095389 0 -5.130302
v -14.488887 0 -3.882286
v -14.772116 0 -2.604723
v -14.94292 0 -1.307336
v -15.0 0 -0.0
v -14.94292 0 1.307336
v -14.772116 0 2.604723
v -14.488887 0 3.882286
v -14.095389 0 5.130302
v -13.594617 0 6.339274
v -12.990381 0 7.5
v -12.287281 0 8.603647
v -11.490667 0 9.641814
v -10.606602 0 10.606602
v -9.641814 0 11.490667
v -8.603647 0 12.287281
v -7.5 0 12.990381
v -6.339274 0 13.594617
v -5.130302 0 14.095389
v -3.882286 0 14.488887
v -2.604723 0 14.772116
v -1.307336 0 14.94292
v -0.0 0 15.0
v 1.307336 0 14.94292
v 2.604723 0 14.772116
v 3.882286 0 14.488887
v 5.130302 0 14.095389
v 6.339274 0 13.594617
v 7.5 0 12.990381
v 8.603647 0 12.287281
v 9.641814 0 11.490667
v 10.606602 0 10.606602
v 11.490667 0 9.641814
v 12.287281 0 8.603647
v 12.990381 0 7.5
v 13.594617 0 6.339274
v 14.095389 0 5.130302
v 14.488887 0 3.882286
v 14.772116 0 2.604723
v 14.94292 0 1.307336
v 15.0 0 0.0
v 15.0 38.0 -0.0
v 14.94292 38.0 -1.307336
v 14.772116 38.0 -2.604723
v 14.488887 38.0 -3.882286
v 14.095389 38.0 -5.130302
v 13.594617 38.0 -6.339274
v 12.990381 38.0 -7.5
v 12.287281 38.0 -8.603647
v 11.490667 38.0 -9.641814
v 10.606602 38.0 -10.606602
v 9.641814 38.0 -11.490667
v 8.603647 38.0 -12.287281
v 7.5 38.0 -12.990381
v 6.339274 38.0 -13.594617
v 5.130302 38.0 -14.095389
v 3.882286 38.0 -14.488887
v 2.604723 38.0 -14.772116
v 1.307336 38.0 -14.94292
v 0.0 38.0 -15.0
v -1.307336 38.0 -14.94292
v -2.604723 38.0 -14.772116
v -3.882286 38.0 -14.488887
v -5.130302 38.0 -14.095389
v -6.339274 38.0 -13.594617
v -7.5 38.0 -12.990381
v -8.603647 38.0 -12.287281
v -9.641814 38.0 -11.490667
v -10.606602 38.0 -10.606602
v -11.490667 38.0 -9.641814
v -12.287281 38.0 -8.603647
v -12.990381 38.0 -7.5
v -13.594617 38.0 -6.339274
v -14.095389 38.0 -5.130302
v -14.488887 38.0 -3.882286
v -14.772116 38.0 -2.604723
v -14.94292 38.0 -1.307336
v -15.0 38.0 -0.0
v -14.94292 38.0 1.307336
v -14.772116 38.0 2.604723
v -14.488887 38.0 3.882286
v -14.095389 38.0 5.130302
v -13.594617 38.0 6.339274
v -12.990381 38.0 7.5
v -12.287281 38.0 8.603647
v -11.490667 38.0 9.641814
v -10.606602 38.0 10.606602
v -9.641814 38.0 11.490667
v -8.603647 38.0 12.287281
v -7.5 38.0 12.990381
v -6.339274 38.0 13.594617
v -5.130302 38.0 14.095389
v -3.882286 38.0 14.488887
v -2.604723 38.0 14.772116
v -1.307336 38.0 14.94292
v -0.0 38.0 15.0
v 1.307336 38.0 14.94292
v 2.604723 38.0 14.772116
v 3.882286 38.0 14.488887
v 5.130302 38.0 14.095389
v 6.339274 38.0 13.594617
v 7.5 38.0 12.990381
v 8.603647 38.0 12.287281
v 9.641814 38.0 11.490667
v 10.606602 38.0 10.606602
v 11.490667 38.0 9.641814
v 12.287281 38.0 8.603647
v 12.990381 38.0 7.5
v 13.594617 38.0 6.339274
v 14.095389 38.0 5.130302
v 14.488887 38.0 3.882286
v 14.772116 38.0 2.604723
v 14.94292 38.0 1.307336
v 15.0 38.0 0.0
v 20.0 0 -0.0
v 19.923894 0 -1.743115
v 19.696155 0 -3.472964
v 19.318517 0 -5.176381
v 18.793852 0 -6.840403
v 18.126156 0 -8.452365
v 17.320508 0 -10.0
v 16.383041 0 -11.471529
v 15.320889 0 -12.855752
v 14.142136 0 -14.142136
v 12.855752 0 -15.320889
v 11.471529 0 -16.383041
v 10.0 0 -17.320508
v 8.452365 0 -18.126156
v 6.840403 0 -18.793852
v 5.176381 0 -19.318517
v 3.472964 0 -19.696155
v 1.743115 0 -19.923894
v 0.0 0 -20.0
v -1.743115 0 -19.923894
v -3.472964 0 -19.696155
v -5.176381 0 -19.318517
v -6.840403 0 -18.793852
v -8.452365 0 -18.126156
v -10.0 0 -17.320508
v -11.471529 0 -16.383041
v -12.855752 0 -15.320889
v -14.142136 0 -14.142136
v -15.320889 0 -12.855752
v -16.383041 0 -11.471529
v -17.320508 0 -10.0
v -18.126156 0 -8.452365
v -18.793852 0 -6.840403
v -19.318517 0 -5.176381
v -19.696155 0 -3.472964
v -19.923894 0 -1.743115
v -20.0 0 -0.0
v -19.923894 0 1.743115
v -19.696155 0 3.472964
v -19.318517 0 5.176381
v -18.793852 0 6.840403
v -18.126156 0 8.452365
v -17.320508 0 10.0
v -16.383041 0 11.471529
v -15.320889 0 12.855752
v -14.142136 0 14.142136
v -12.855752 0 15.320889
v -11.471529 0 16.383041
v -10.0 0 17.320508
v -8.452365 0 18.126156
v -6.840403 0 18.793852
v -5.176381 0 19.318517
v -3.472964 0 19.696155
v -1.743115 0 19.923894
v -0.0 0 20.0
v 1.743115 0 19.923894
v 3.472964 0 19.696155
v 5.176381 0 19.318517
v 6.840403 0 18.793852
v 8.452365 0 18.126156
v 10.0 0 17.320508
v 11.471529 0 16.383041
v 12.855752 0 15.320889
v 14.142136 0 14.142136
v 15.320889 0 12.855752
v 16.383041 0 11.471529
v 17.320508 0 10.0
v 18.126156 0 8.452365
v 18.793852 0 6.840403
v 19.318517 0 5.176381
v 19.696155 0 3.472964
v 19.923894 0 1.743115
v 20.0 0 0.0
v 15.0 0 -0.0
v 14.94292 0 -1.307336
v 14.772116 0 -2.604723
v 14.488887 0 -3.882286
v 14.095389 0 -5.130302
v 13.594617 0 -6.339274
v 12.990381 0 -7.5
v 12.287281 0 -8.603647
v 11.490667 0 -9.641814
v 10.606602 0 -10.606602
v 9.641814 0 -11.490667
v 8.603647 0 -12.287281
v 7.5 0 -12.990381
v 6.339274 0 -13.594617
v 5.130302 0 -14.095389
v 3.882286 0 -14.488887
v 2.604723 0 -14.772116
v 1.307336 0 -14.94292
v 0.0 0 -15.0
v -1.307336 0 -14.94292
v -2.604723 0 -14.772116
v -3.882286 0 -14.488887
v -5.130302 0 -14.095389
v -6.339274 0 -13.594617
v -7.5 0 -12.990381
v -8.603647 0 -12.287281
v -9.641814 0 -11.490667
v -10.606602 0 -10.606602
v -11.490667 0 -9.641814
v -12.287281 0 -8.603647
v -12.990381 0 -7.5
v -13.594617 0 -6.339274
v -14.095389 0 -5.130302
v -14.488887 0 -3.882286
v -14.772116 0 -2.604723
v -14.94292 0 -1.307336
v -15.0 0 -0.0
v -14.94292 0 1.307336
v -14.772116 0 2.604723
v -14.488887 0 3.882286
v -14.095389 0 5.130302
v -13.594617 0 6.339274
v -12.990381 0 7.5
v -12.287281 0 8.603647
v -11.490667 0 9.641814
v -10.606602 0 10.606602
v -9.641814 0 11.490667
v -8.603647 0 12.287281
v -7.5 0 12.990381
v -6.339274 0 13.594617
v -5.130302 0 14.095389
v -3.882286 0 14.488887
v -2.604723 0 14.772116
v -1.307336 0 14.94292
v -0.0 0 15.0
v 1.307336 0 14.94292
v 2.604723 0 14.772116
v 3.882286 0 14.488887
v 5.130302 0 14.095389
v 6.339274 0 13.594617
v 7.5 0 12.990381
v 8.603647 0 12.287281
v 9.641814 0 11.490667
v 10.606602 0 10.606602
v 11.490667 0 9.641814
v 12.287281 0 8.603647
v 12.990381 0 7.5
v 13.594617 0 6.339274
v 14.095389 0 5.130302
v 14.488887 0 3.882286
v 14.772116 0 2.604723
v 14.94292 0 1.307336
v 15.0 0 0.0
v 20.0 38.0 -0.0
v 19.923894 38.0 -1.743115
v 19.696155 38.0 -3.472964
v 19.318517 38.0 -5.176381
v 18.793852 38.0 -6.840403
v 18.126156 38.0 -8.452365
v 17.320508 38.0 -10.0
v 16.383041 38.0 -11.471529
v 15.320889 38.0 -12.855752
v 14.142136 38.0 -14.142136
v 12.855752 38.0 -15.320889
v 11.471529 38.0 -16.383041
v 10.0 38.0 -17.320508
v 8.452365 38.0 -18.126156
v 6.840403 38.0 -18.793852
v 5.176381 38.0 -19.318517
v 3.472964 38.0 -19.696155
v 1.743115 38.0 -19.923894
v 0.0 38.0 -20.0
v -1.743115 38.0 -19.923894
v -3.472964 38.0 -19.696155
v -5.176381 38.0 -19.318517
v -6.840403 38.0 -18.793852
v -8.452365 38.0 -18.126156
v -10.0 38.0 -17.320508
v -11.471529 38.0 -16.383041
v -12.855752 38.0 -15.320889
v -14.142136 38.0 -14.142136
v -15.320889 38.0 -12.855752
v -16.383041 38.0 -11.471529
v -17.320508 38.0 -10.0
v -18.126156 38.0 -8.452365
v -18.793852 38.0 -6.840403
v -19.318517 38.0 -5.176381
v -19.696155 38.0 -3.472964
v -19.923894 38.0 -1.743115
v -20.0 38.0 -0.0
v -19.923894 38.0 1.743115
v -19.696155 38.0 3.472964
v -19.318517 38.0 5.176381
v -18.793852 38.0 6.840403
v -18.126156 38.0 8.452365
v -17.320508 38.0 10.0
v -16.383041 38.0 11.471529
v -15.320889 38.0 12.855752
v -14.142136 38.0 14.142136
v -12.855752 38.0 15.320889
v -11.471529 38.0 16.383041
v -10.0 38.0 17.320508
v -8.452365 38.0 18.126156
v -6.840403 38.0 18.793852
v -5.176381 38.0 19.318517
v -3.472964 38.0 19.696155
v -1.743115 38.0 19.923894
v -0.0 38.0 20.0
v 1.743115 38.0 19.923894
v 3.472964 38.0 19.696155
v 5.176381 38.0 19.318517
v 6.840403 38.0 18.793852
v 8.452365 38.0 18.126156
v 10.0 38.0 17.320508
v 11.471529 38.0 16.383041
v 12.855752 38.0 15.320889
v 14.142136 38.0 14.142136
v 15.320889 38.0 12.855752
v 16.383041 38.0 11.471529
v 17.320508 38.0 10.0
v 18.126156 38.0 8.452365
v 18.793852 38.0 6.840403
v 19.318517 38.0 5.176381
v 19.696155 38.0 3.472964
v 19.923894 38.0 1.743115
v 20.0 38.0 0.0
v 15.0 38.0 -0.0
v 14.94292 38.0 -1.307336
v 14.772116 38.0 -2.604723
v 14.488887 38.0 -3.882286
v 14.095389 38.0 -5.130302
v 13.594617 38.0 -6.339274
v 12.990381 38.0 -7.5
v 12.287281 38.0 -8.603647
v 11.490667 38.0 -9.641814
v 10.606602 38.0 -10.606602
v 9.641814 38.0 -11.490667
v 8.603647 38.0 -12.287281
v 7.5 38.0 -12.990381
v 6.339274 38.0 -13.594617
v 5.130302 38.0 -14.095389
v 3.882286 38.0 -14.488887
v 2.604723 38.0 -14.772116
v 1.307336 38.0 -14.94292
v 0.0 38.0 -15.0
v -1.307336 38.0 -14.94292
v -2.604723 38.0 -14.772116
v -3.882286 38.0 -14.488887
v -5.130302 38.0 -14.095389
v -6.339274 38.0 -13.594617
v -7.5 38.0 -12.990381
v -8.603647 38.0 -12.287281
v -9.641814 38.0 -11.490667
v -10.606602 38.0 -10.606602
v -11.490667 38.0 -9.641814
v -12.287281 38.0 -8.603647
v -12.990381 38.0 -7.5
v -13.594617 38.0 -6.339274
v -14.095389 38.0 -5.130302
v -14.488887 38.0 -3.882286
v -14.772116 38.0 -2.604723
v -14.94292 38.0 -1.307336
v -15.0 38.0 -0.0
v -14.94292 38.0 1.307336
v -14.772116 38.0 2.604723
v -14.488887 38.0 3.882286
v -14.095389 38.0 5.130302
v -13.594617 38.0 6.339274
v -12.990381 38.0 7.5
v -12.287281 38.0 8.603647
v -11.490667 38.0 9.641814
v -10.606602 38.0 10.606602
v -9.641814 38.0 11.490667
v -8.603647 38.0 12.287281
v -7.5 38.0 12.990381
v -6.339274 38.0 13.594617
v -5.130302 38.0 14.095389
v -3.882286 38.0 14.488887
v -2.604723 38.0 14.772116
v -1.307336 38.0 14.94292
v -0.0 38.0 15.0
v 1.307336 38.0 14.94292
v 2.604723 38.0 14.772116
v 3.882286 38.0 14.488887
v 5.130302 38.0 14.095389
v 6.339274 38.0 13.594617
v 7.5 38.0 12.990381
v 8.603647 38.0 12.287281
v 9.641814 38.0 11.490667
v 10.606602 38.0 10.606602
v 11.490667 38.0 9.641814
v 12.287281 38.0 8.603647
v 12.990381 38.0 7.5
v 13.594617 38.0 6.339274
v 14.095389 38.0 5.130302
v 14.488887 38.0 3.882286
v 14.772116 38.0 2.604723
v 14.94292 38.0 1.307336
v 15.0 38.0 0.0
v 20.0 4 -0.0
v 19.923894 4 -1.743115
v 19.696155 4 -3.472964
v 19.318517 4 -5.176381
v 18.793852 4 -6.840403
v 18.126156 4 -8.452365
v 17.320508 4 -10.0
v 16.383041 4 -11.471529
v 15.320889 4 -12.855752
v 14.142136 4 -14.142136
v 12.855752 4 -15.320889
v 11.471529 4 -16.383041
v 10.0 4 -17.320508
v 8.452365 4 -18.126156
v 6.840403 4 -18.793852
v 5.176381 4 -19.318517
v 3.472964 4 -19.696155
v 1.743115 4 -19.923894
v 0.0 4 -20.0
v -1.743115 4 -19.923894
v -3.472964 4 -19.696155
v -5.176381 4 -19.318517
v -6.840403 4 -18.793852
v -8.452365 4 -18.126156
v -10.0 4 -17.320508
v -11.471529 4 -16.383041
v -12.855752 4 -15.320889
v -14.142136 4 -14.142136
v -15.320889 4 -12.855752
v -16.383041 4 -11.471529
v -17.320508 4 -10.0
v -18.126156 4 -8.452365
v -18.793852 4 -6.840403
v -19.318517 4 -5.176381
v -19.696155 4 -3.472964
v -19.923894 4 -1.743115
v -20.0 4 -0.0
v -19.923894 4 1.743115
v -19.696155 4 3.472964
v -19.318517 4 5.176381
v -18.793852 4 6.840403
v -18.126156 4 8.452365
v -17.320508 4 10.0
v -16.383041 4 11.471529
v -15.320889 4 12.855752
v -14.142136 4 14.142136
v -12.855752 4 15.320889
v -11.471529 4 16.383041
v -10.0 4 17.320508
v -8.452365 4 18.126156
v -6.840403 4 18.793852
v -5.176381 4 19.318517
v -3.472964 4 19.696155
v -1.743115 4 19.923894
v -0.0 4 20.0
v 1.743115 4 19.923894
v 3.472964 4 19.696155
v 5.176381 4 19.318517
v 6.840403 4 18.793852
v 8.452365 4 18.126156
v 10.0 4 17.320508
v 11.471529 4 16.383041
v 12.855752 4 15.320889
v 14.142136 4 14.142136
v 15.320889 4 12.855752
v 16.383041 4 11.471529
v 17.320508 4 10.0
v 18.126156 4 8.452365
v 18.793852 4 6.840403
v 19.318517 4 5.176381
v 19.696155 4 3.472964
v 19.923894 4 1.743115
v 20.0 4 0.0
v 15.0 4 -0.0
v 14.94292 4 -1.307336
v 14.772116 4 -2.604723
v 14.488887 4 -3.882286
v 14.095389 4 -5.130302
v 13.594617 4 -6.339274
v 12.990381 4 -7.5
v 12.287281 4 -8.603647
v 11.490667 4 -9.641814
v 10.606602 4 -10.606602
v 9.641814 4 -11.490667
v 8.603647 4 -12.287281
v 7.5 4 -12.990381
v 6.339274 4 -13.594617
v 5.130302 4 -14.095389
v 3.882286 4 -14.488887
v 2.604723 4 -14.772116
v 1.307336 4 -14.94292
v 0.0 4 -15.0
v -1.307336 4 -14.94292
v -2.604723 4 -14.772116
v -3.882286 4 -14.488887
v -5.130302 4 -14.095389
v -6.339274 4 -13.594617
v -7.5 4 -12.990381
v -8.603647 4 -12.287281
v -9.641814 4 -11.490667
v -10.606602 4 -10.606602
v -11.490667 4 -9.641814
v -12.287281 4 -8.603647
v -12.990381 4 -7.5
v -13.594617 4 -6.339274
v -14.095389 4 -5.130302
v -14.488887 4 -3.882286
v -14.772116 4 -2.604723
v -14.94292 4 -1.307336
v -15.0 4 -0.0
v -14.94292 4 1.307336
v -14.772116 4 2.604723
v -14.488887 4 3.882286
v -14.095389 4 5.130302
v -13.594617 4 6.339274
v -12.990381 4 7.5
v -12.287281 4 8.603647
v -11.490667 4 9.641814
v -10.606602 4 10.606602
v -9.641814 4 11.490667
v -8.603647 4 12.287281
v -7.5 4 12.990381
v -6.339274 4 13.594617
v -5.130302 4 14.095389
v -3.882286 4 14.488887
v -2.604723 4 14.772116
v -1.307336 4 14.94292
v -0.0 4 15.0
v 1.307336 4 14.94292
v 2.604723 4 14.772116
v 3.882286 4 14.488887
v 5.130302 4 14.095389
v 6.339274 4 13.594617
v 7.5 4 12.990381
v 8.603647 4 12.287281
v 9.641814 4 11.490667
v 10.606602 4 10.606602
v 11.490667 4 9.641814
v 12.287281 4 8.603647
v 12.990381 4 7.5
v 13.594617 4 6.339274
v 14.095389 4 5.130302
v 14.488887 4 3.882286
v 14.772116 4 2.604723
v 14.94292 4 1.307336
v 15.0 4 0.0
v 20.0 12 -0.0
v 19.923894 12 -1.743115
v 19.696155 12 -3.472964
v 19.318517 12 -5.176381
v 18.793852 12 -6.840403
v 18.126156 12 -8.452365
v 17.320508 12 -10.0
v 16.383041 12 -11.471529
v 15.320889 12 -12.855752
v 14.142136 12 -14.142136
v 12.855752 12 -15.320889
v 11.471529 12 -16.383041
v 10.0 12 -17.320508
v 8.452365 12 -18.126156
v 6.840403 12 -18.793852
v 5.176381 12 -19.318517
v 3.472964 12 -19.696155
v 1.743115 12 -19.923894
v 0.0 12 -20.0
v -1.743115 12 -19.923894
v -3.472964 12 -19.696155
v -5.176381 12 -19.318517
v -6.840403 12 -18.793852
v -8.452365 12 -18.126156
v -10.0 12 -17.320508
v -11.471529 12 -16.383041
v -12.855752 12 -15.320889
v -14.142136 12 -14.142136
v -15.320889 12 -12.855752
v -16.383041 12 -11.471529
v -17.320508 12 -10.0
v -18.126156 12 -8.452365
v -18.793852 12 -6.840403
v -19.318517 12 -5.176381
v -19.696155 12 -3.472964
v -19.923894 12 -1.743115
v -20.0 12 -0.0
v -19.923894 12 1.743115
v -19.696155 12 3.472964
v -19.318517 12 5.176381
v -18.793852 12 6.840403
v -18.126156 12 8.452365
v -17.320508 12 10.0
v -16.383041 12 11.471529
v -15.320889 12 12.855752
v -14.142136 12 14.142136
v -12.855752 12 15.320889
v -11.471529 12 16.383041
v -10.0 12 17.320508
v -8.452365 12 18.126156
v -6.840403 12 18.793852
v -5.176381 12 19.318517
v -3.472964 12 19.696155
v -1.743115 12 19.923894
v -0.0 12 20.0
v 1.743115 12 19.923894
v 3.472964 12 19.696155
v 5.176381 12 19.318517
v 6.840403 12 18.793852
v 8.452365 12 18.126156
v 10.0 12 17.320508
v 11.471529 12 16.383041
v 12.855752 12 15.320889
v 14.142136 12 14.142136
v 15.320889 12 12.855752
v 16.383041 12 11.471529
v 17.320508 12 10.0
v 18.126156 12 8.452365
v 18.793852 12 6.840403
v 19.318517 12 5.176381
v 19.696155 12 3.472964
v 19.923894 12 1.743115
v 20.0 12 0.0
v 15.0 12 -0.0
v 14.94292 12 -1.307336
v 14.772116 12 -2.604723
v 14.488887 12 -3.882286
v 14.095389 12 -5.130302
v 13.594617 12 -6.339274
v 12.990381 12 -7.5
v 12.287281 12 -8.603647
v 11.490667 12 -9.641814
v 10.606602 12 -10.606602
v 9.641814 12 -11.490667
v 8.603647 12 -12.287281
v 7.5 12 -12.990381
v 6.339274 12 -13.594617
v 5.130302 12 -14.095389
v 3.882286 12 -14.488887
v 2.604723 12 -14.772116
v 1.307336 12 -14.94292
v 0.0 12 -15.0
v -1.307336 12 -14.94292
v -2.604723 12 -14.772116
v -3.882286 12 -14.488887
v -5.130302 12 -14.095389
v -6.339274 12 -13.594617
v -7.5 12 -12.990381
v -8.603647 12 -12.287281
v -9.641814 12 -11.490667
v -10.606602 12 -10.606602
v -11.490667 12 -9.641814
v -12.287281 12 -8.603647
v -12.990381 12 -7.5
v -13.594617 12 -6.339274
v -14.095389 12 -5.130302
v -14.488887 12 -3.882286
v -14.772116 12 -2.604723
v -14.94292 12 -1.307336
v -15.0 12 -0.0
v -14.94292 12 1.307336
v -14.772116 12 2.604723
v -14.488887 12 3.882286
v -14.095389 12 5.130302
v -13.594617 12 6.339274
v -12.990381 12 7.5
v -12.287281 12 8.603647
v -11.490667 12 9.641814
v -10.606602 12 10.606602
v -9.641814 12 11.490667
v -8.603647 12 12.287281
v -7.5 12 12.990381
v -6.339274 12 13.594617
v -5.130302 12 14.095389
v -3.882286 12 14.488887
v -2.604723 12 14.772116
v -1.307336 12 14.94292
v -0.0 12 15.0
v 1.307336 12 14.94292
v 2.604723 12 14.772116
v 3.882286 12 14.488887
v 5.130302 12 14.095389
v 6.339274 12 13.594617
v 7.5 12 12.990381
v 8.603647 12 12.287281
v 9.641814 12 11.490667
v 10.606602 12 10.606602
v 11.490667 12 9.641814
v 12.287281 12 8.603647
v 12.990381 12 7.5
v 13.594617 12 6.339274
v 14.095389 12 5.130302
v 14.488887 12 3.882286
v 14.772116 12 2.604723
v 14.94292 12 1.307336
v 15.0 12 0.0
v 20.0 16 -0.0
v 19.923894 16 -1.743115
v 19.696155 16 -3.472964
v 19.318517 16 -5.176381
v 18.793852 16 -6.840403
v 18.126156 16 -8.452365
v 17.320508 16 -10.0
v 16.383041 16 -11.471529
v 15.320889 16 -12.855752
v 14.142136 16 -14.142136
v 12.855752 16 -15.320889
v 11.471529 16 -16.383041
v 10.0 16 -17.320508
v 8.452365 16 -18.126156
v 6.840403 16 -18.793852
v 5.176381 16 -19.318517
v 3.472964 16 -19.696155
v 1.743115 16 -19.923894
v 0.0 16 -20.0
v -1.743115 16 -19.923894
v -3.472964 16 -19.696155
v -5.176381 16 -19.318517
v -6.840403 16 -18.793852
v -8.452365 16 -18.126156
v -10.0 16 -17.320508
v -11.471529 16 -16.383041
v -12.855752 16 -15.320889
v -14.142136 16 -14.142136
v -15.320889 16 -12.855752
v -16.383041 16 -11.471529
v -17.320508 16 -10.0
v -18.126156 16 -8.452365
v -18.793852 16 -6.840403
v -19.318517 16 -5.176381
v -19.696155 16 -3.472964
v -19.923894 16 -1.743115
v -20.0 16 -0.0
v -19.923894 16 1.743115
v -19.696155 16 3.472964
v -19.318517 16 5.176381
v -18.793852 16 6.840403
v -18.126156 16 8.452365
v -17.320508 16 10.0
v -16.383041 16 11.471529
v -15.320889 16 12.855752
v -14.142136 16 14.142136
v -12.855752 16 15.320889
v -11.471529 16 16.383041
v -10.0 16 17.320508
v -8.452365 16 18.126156
v -6.840403 16 18.793852
v -5.176381 16 19.318517
v -3.472964 16 19.696155
v -1.743115 16 19.923894
v -0.0 16 20.0
v 1.743115 16 19.923894
v 3.472964 16 19.696155
v 5.176381 16 19.318517
v 6.840403 16 18.793852
v 8.452365 16 18.126156
v 10.0 16 17.320508
v 11.471529 16 16.383041
v 12.855752 16 15.320889
v 14.142136 16 14.142136
v 15.320889 16 12.855752
v 16.383041 16 11.471529
v 17.320508 16 10.0
v 18.126156 16 8.452365
v 18.793852 16 6.840403
v 19.318517 16 5.176381
v 19.696155 16 3.472964
v 19.923894 16 1.743115
v 20.0 16 0.0
v 15.0 16 -0.0
v 14.94292 16 -1.307336
v 14.772116 16 -2.604723
v 14.488887 16 -3.882286
v 14.095389 16 -5.130302
v 13.594617 16 -6.339274
v 12.990381 16 -7.5
v 12.287281 16 -8.603647
v 11.490667 16 -9.641814
v 10.606602 16 -10.606602
v 9.641814 16 -11.490667
v 8.603647 16 -12.287281
v 7.5 16 -12.990381
v 6.339274 16 -13.594617
v 5.130302 16 -14.095389
v 3.882286 16 -14.488887
v 2.604723 16 -14.772116
v 1.307336 16 -14.94292
v 0.0 16 -15.0
v -1.307336 16 -14.94292
v -2.604723 16 -14.772116
v -3.882286 16 -14.488887
v -5.130302 16 -14.095389
v -6.339274 16 -13.594617
v -7.5 16 -12.990381
v -8.603647 16 -12.287281
v -9.641814 16 -11.490667
v -10.606602 16 -10.606602
v -11.490667 16 -9.641814
v -12.287281 16 -8.603647
v -12.990381 16 -7.5
v -13.594617 16 -6.339274
v -14.095389 16 -5.130302
v -14.488887 16 -3.882286
v -14.772116 16 -2.604723
v -14.94292 16 -1.307336
v -15.0 16 -0.0
v -14.94292 16 1.307336
v -14.772116 16 2.604723
v -14.488887 16 3.882286
v -14.095389 16 5.130302
v -13.594617 16 6.339274
v -12.990381 16 7.5
v -12.287281 16 8.603647
v -11.490667 16 9.641814
v -10.606602 16 10.606602
v -9.641814 16 11.490667
v -8.603647 16 12.287281
v -7.5 16 12.990381
v -6.339274 16 13.594617
v -5.130302 16 14.095389
v -3.882286 16 14.488887
v -2.604723 16 14.772116
v -1.307336 16 14.94292
v -0.0 16 15.0
v 1.307336 16 14.94292
v 2.604723 16 14.772116
v 3.882286 16 14.488887
v 5.130302 16 14.095389
v 6.339274 16 13.594617
v 7.5 16 12.990381
v 8.603647 16 12.287281
v 9.641814 16 11.490667
v 10.606602 16 10.606602
v 11.490667 16 9.641814
v 12.287281 16 8.603647
v 12.990381 16 7.5
v 13.594617 16 6.339274
v 14.095389 16 5.130302
v 14.488887 16 3.882286
v 14.772116 16 2.604723
v 14.94292 16 1.307336
v 15.0 16 0.0
v 20.0 24 -0.0
v 19.923894 24 -1.743115
v 19.696155 24 -3.472964
v 19.318517 24 -5.176381
v 18.793852 24 -6.840403
v 18.126156 24 -8.452365
v 17.320508 24 -10.0
v 16.383041 24 -11.471529
v 15.320889 24 -12.855752
v 14.142136 24 -14.142136
v 12.855752 24 -15.320889
v 11.471529 24 -16.383041
v 10.0 24 -17.320508
v 8.452365 24 -18.126156
v 6.840403 24 -18.793852
v 5.176381 24 -19.318517
v 3.472964 24 -19.696155
v 1.743115 24 -19.923894
v 0.0 24 -20.0
v -1.743115 24 -19.923894
v -3.472964 24 -19.696155
v -5.176381 24 -19.318517
v -6.840403 24 -18.793852
v -8.452365 24 -18.126156
v -10.0 24 -17.320508
v -11.471529 24 -16.383041
v -12.855752 24 -15.320889
v -14.142136 24 -14.142136
v -15.320889 24 -12.855752
v -16.383041 24 -11.471529
v -17.320508 24 -10.0
v -18.126156 24 -8.452365
v -18.793852 24 -6.840403
v -19.318517 24 -5.176381
v -19.696155 24 -3.472964
v -19.923894 24 -1.743115
v -20.0 24 -0.0
v -19.923894 24 1.743115
v -19.696155 24 3.472964
v -19.318517 24 5.176381
v -18.793852 24 6.840403
v -18.126156 24 8.452365
v -17.320508 24 10.0
v -16.383041 24 11.471529
v -15.320889 24 12.855752
v -14.142136 24 14.142136
v -12.855752 24 15.320889
v -11.471529 24 16.383041
v -10.0 24 17.320508
v -8.452365 24 18.126156
v -6.840403 24 18.793852
v -5.176381 24 19.318517
v -3.472964 24 19.696155
v -1.743115 24 19.923894
v -0.0 24 20.0
v 1.743115 24 19.923894
v 3.472964 24 19.696155
v 5.176381 24 19.318517
v 6.840403 24 18.793852
v 8.452365 24 18.126156
v 10.0 24 17.320508
v 11.471529 24 16.383041
v 12.855752 24 15.320889
v 14.142136 24 14.142136
v 15.320889 24 12.855752
v 16.383041 24 11.471529
v 17.320508 24 10.0
v 18.126156 24 8.452365
v 18.793852 24 6.840403
v 19.318517 24 5.176381
v 19.696155 24 3.472964
v 19.923894 24 1.743115
v 20.0 24 0.0
v 15.0 24 -0.0
v 14.94292 24 -1.307336
v 14.772116 24 -2.604723
v 14.488887 24 -3.882286
v 14.095389 24 -5.130302
v 13.594617 24 -6.339274
v 12.990381 24 -7.5
v 12.287281 24 -8.603647
v 11.490667 24 -9.641814
v 10.606602 24 -10.606602
v 9.641814 24 -11.490667
v 8.603647 24 -12.287281
v 7.5 24 -12.990381
v 6.339274 24 -13.594617
v 5.130302 24 -14.095389
v 3.882286 24 -14.488887
v 2.604723 24 -14.772116
v 1.307336 24 -14.94292
v 0.0 24 -15.0
v -1.307336 24 -14.94292
v -2.604723 24 -14.772116
v -3.882286 24 -14.488887
v -5.130302 24 -14.095389
v -6.339274 24 -13.594617
v -7.5 24 -12.990381
v -8.603647 24 -12.287281
v -9.641814 24 -11.490667
v -10.606602 24 -10.606602
v -11.490667 24 -9.641814
v -12.287281 24 -8.603647
v -12.990381 24 -7.5
v -13.594617 24 -6.339274
v -14.095389 24 -5.130302
v -14.488887 24 -3.882286
v -14.772116 24 -2.604723
v -14.94292 24 -1.307336
v -15.0 24 -0.0
v -14.94292 24 1.307336
v -14.772116 24 2.604723
v -14.488887 24 3.882286
v -14.095389 24 5.130302
v -13.594617 24 6.339274
v -12.990381 24 7.5
v -12.287281 24 8.603647
v -11.490667 24 9.641814
v -10.606602 24 10.606602
v -9.641814 24 11.490667
v -8.603647 24 12.287281
v -7.5 24 12.990381
v -6.339274 24 13.594617
v -5.130302 24 14.095389
v -3.882286 24 14.488887
v -2.604723 24 14.772116
v -1.307336 24 14.94292
v -0.0 24 15.0
v 1.307336 24 14.94292
v 2.604723 24 14.772116
v 3.882286 24 14.488887
v 5.130302 24 14.095389
v 6.339274 24 13.594617
v 7.5 24 12.990381
v 8.603647 24 12.287281
v 9.641814 24 11.490667
v 10.606602 24 10.606602
v 11.490667 24 9.641814
v 12.287281 24 8.603647
v 12.990381 24 7.5
v 13.594617 24 6.339274
v 14.095389 24 5.130302
v 14.488887 24 3.882286
v 14.772116 24 2.604723
v 14.94292 24 1.307336
v 15.0 24 0.0
v 20.0 28 -0.0
v 19.923894 28 -1.743115
v 19.696155 28 -3.472964
v 19.318517 28 -5.176381
v 18.793852 28 -6.840403
v 18.126156 28 -8.452365
v 17.320508 28 -10.0
v 16.383041 28 -11.471529
v 15.320889 28 -12.855752
v 14.142136 28 -14.142136
v 12.855752 28 -15.320889
v 11.471529 28 -16.383041
v 10.0 28 -17.320508
v 8.452365 28 -18.126156
v 6.840403 28 -18.793852
v 5.176381 28 -19.318517
v 3.472964 28 -19.696155
v 1.743115 28 -19.923894
v 0.0 28 -20.0
v -1.743115 28 -19.923894
v -3.472964 28 -19.696155
v -5.176381 28 -19.318517
v -6.840403 28 -18.793852
v -8.452365 28 -18.126156
v -10.0 28 -17.320508
v -11.471529 28 -16.383041
v -12.855752 28 -15.320889
v -14.142136 28 -14.142136
v -15.320889 28 -12.855752
v -16.383041 28 -11.471529
v -17.320508 28 -10.0
v -18.126156 28 -8.452365
v -18.793852 28 -6.840403
v -19.318517 28 -5.176381
v -19.696155 28 -3.472964
v -19.923894 28 -1.743115
v -20.0 28 -0.0
v -19.923894 28 1.743115
v -19.696155 28 3.472964
v -19.318517 28 5.176381
v -18.793852 28 6.840403
v -18.126156 28 8.452365
v -17.320508 28 10.0
v -16.383041 28 11.471529
v -15.320889 28 12.855752
v -14.142136 28 14.142136
v -12.855752 28 15.320889
v -11.471529 28 16.383041
v -10.0 28 17.320508
v -8.452365 28 18.126156
v -6.840403 28 18.793852
v -5.176381 28 19.318517
v -3.472964 28 19.696155
v -1.743115 28 19.923894
v -0.0 28 20.0
v 1.743115 28 19.923894
v 3.472964 28 19.696155
v 5.176381 28 19.318517
v 6.840403 28 18.793852
v 8.452365 28 18.126156
v 10.0 28 17.320508
v 11.471529 28 16.383041
v 12.855752 28 15.320889
v 14.142136 28 14.142136
v 15.320889 28 12.855752
v 16.383041 28 11.471529
v 17.320508 28 10.0
v 18.126156 28 8.452365
v 18.793852 28 6.840403
v 19.318517 28 5.176381
v 19.696155 28 3.472964
v 19.923894 28 1.743115
v 20.0 28 0.0
v 15.0 28 -0.0
v 14.94292 28 -1.307336
v 14.772116 28 -2.604723
v 14.488887 28 -3.882286
v 14.095389 28 -5.130302
v 13.594617 28 -6.339274
v 12.990381 28 -7.5
v 12.287281 28 -8.603647
v 11.490667 28 -9.641814
v 10.606602 28 -10.606602
v 9.641814 28 -11.490667
v 8.603647 28 -12.287281
v 7.5 28 -12.990381
v 6.339274 28 -13.594617
v 5.130302 28 -14.095389
v 3.882286 28 -14.488887
v 2.604723 28 -14.772116
v 1.307336 28 -14.94292
v 0.0 28 -15.0
v -1.307336 28 -14.94292
v -2.604723 28 -14.772116
v -3.882286 28 -14.488887
v -5.130302 28 -14.095389
v -6.339274 28 -13.594617
v -7.5 28 -12.990381
v -8.603647 28 -12.287281
v -9.641814 28 -11.490667
v -10.606602 28 -10.606602
v -11.490667 28 -9.641814
v -12.287281 28 -8.603647
v -12.990381 28 -7.5
v -13.594617 28 -6.339274
v -14.095389 28 -5.130302
v -14.488887 28 -3.882286
v -14.772116 28 -2.604723
v -14.94292 28 -1.307336
v -15.0 28 -0.0
v -14.94292 28 1.307336
v -14.772116 28 2.604723
v -14.488887 28 3.882286
v -14.095389 28 5.130302
v -13.594617 28 6.339274
v -12.990381 28 7.5
v -12.287281 28 8.603647
v -11.490667 28 9.641814
v -10.606602 28 10.606602
v -9.641814 28 11.490667
v -8.603647 28 12.287281
v -7.5 28 12.990381
v -6.339274 28 13.594617
v -5.130302 28 14.095389
v -3.882286 28 14.488887
v -2.604723 28 14.772116
v -1.307336 28 14.94292
v -0.0 28 15.0
v 1.307336 28 14.94292
v 2.604723 28 14.772116
v 3.882286 28 14.488887
v 5.130302 28 14.095389
v 6.339274 28 13.594617
v 7.5 28 12.990381
v 8.603647 28 12.287281
v 9.641814 28 11.490667
v 10.606602 28 10.606602
v 11.490667 28 9.641814
v 12.287281 28 8.603647
v 12.990381 28 7.5
v 13.594617 28 6.339274
v 14.095389 28 5.130302
v 14.488887 28 3.882286
v 14.772116 28 2.604723
v 14.94292 28 1.307336
v 15.0 28 0.0
v 20.0 34 -0.0
v 19.923894 34 -1.743115
v 19.696155 34 -3.472964
v 19.318517 34 -5.176381
v 18.793852 34 -6.840403
v 18.126156 34 -8.452365
v 17.320508 34 -10.0
v 16.383041 34 -11.471529
v 15.320889 34 -12.855752
v 14.142136 34 -14.142136
v 12.855752 34 -15.320889
v 11.471529 34 -16.383041
v 10.0 34 -17.320508
v 8.452365 34 -18.126156
v 6.840403 34 -18.793852
v 5.176381 34 -19.318517
v 3.472964 34 -19.696155
v 1.743115 34 -19.923894
v 0.0 34 -20.0
v -1.743115 34 -19.923894
v -3.472964 34 -19.696155
v -5.176381 34 -19.318517
v -6.840403 34 -18.793852
v -8.452365 34 -18.126156
v -10.0 34 -17.320508
v -11.471529 34 -16.383041
v -12.855752 34 -15.320889
v -14.142136 34 -14.142136
v -15.320889 34 -12.855752
v -16.383041 34 -11.471529
v -17.320508 34 -10.0
v -18.126156 34 -8.452365
v -18.793852 34 -6.840403
v -19.318517 34 -5.176381
v -19.696155 34 -3.472964
v -19.923894 34 -1.743115
v -20.0 34 -0.0
v -19.923894 34 1.743115
v -19.696155 34 3.472964
v -19.318517 34 5.176381
v -18.793852 34 6.840403
v -18.126156 34 8.452365
v -17.320508 34 10.0
v -16.383041 34 11.471529
v -15.320889 34 12.855752
v -14.142136 34 14.142136
v -12.855752 34 15.320889
v -11.471529 34 16.383041
v -10.0 34 17.320508
v -8.452365 34 18.126156
v -6.840403 34 18.793852
v -5.176381 34 19.318517
v -3.472964 34 19.696155
v -1.743115 34 19.923894
v -0.0 34 20.0
v 1.743115 34 19.923894
v 3.472964 34 19.696155
v 5.176381 34 19.318517
v 6.840403 34 18.793852
v 8.452365 34 18.126156
v 10.0 34 17.320508
v 11.471529 34 16.383041
v 12.855752 34 15.320889
v 14.142136 34 14.142136
v 15.320889 34 12.855752
v 16.383041 34 11.471529
v 17.320508 34 10.0
v 18.126156 34 8.452365
v 18.793852 34 6.840403
v 19.318517 34 5.176381
v 19.696155 34 3.472964
v 19.923894 34 1.743115
v 20.0 34 0.0
v 15.0 34 -0.0
v 14.94292 34 -1.307336
v 14.772116 34 -2.604723
v 14.488887 34 -3.882286
v 14.095389 34 -5.130302
v 13.594617 34 -6.339274
v 12.990381 34 -7.5
v 12.287281 34 -8.603647
v 11.490667 34 -9.641814
v 10.606602 34 -10.606602
v 9.641814 34 -11.490667
v 8.603647 34 -12.287281
v 7.5 34 -12.990381
v 6.339274 34 -13.594617
v 5.130302 34 -14.095389
v 3.882286 34 -14.488887
v 2.604723 34 -14.772116
v 1.307336 34 -14.94292
v 0.0 34 -15.0
v -1.307336 34 -14.94292
v -2.604723 34 -14.772116
v -3.882286 34 -14.488887
v -5.130302 34 -14.095389
v -6.339274 34 -13.594617
v -7.5 34 -12.990381
v -8.603647 34 -12.287281
v -9.641814 34 -11.490667
v -10.606602 34 -10.606602
v -11.490667 34 -9.641814
v -12.287281 34 -8.603647
v -12.990381 34 -7.5
v -13.594617 34 -6.339274
v -14.095389 34 -5.130302
v -14.488887 34 -3.882286
v -14.772116 34 -2.604723
v -14.94292 34 -1.307336
v -15.0 34 -0.0
v -14.94292 34 1.307336
v -14.772116 34 2.604723
v -14.488887 34 3.882286
v -14.095389 34 5.130302
v -13.594617 34 6.339274
v -12.990381 34 7.5
v -12.287281 34 8.603647
v -11.490667 34 9.641814
v -10.606602 34 10.606602
v -9.641814 34 11.490667
v -8.603647 34 12.287281
v -7.5 34 12.990381
v -6.339274 34 13.594617
v -5.130302 34 14.095389
v -3.882286 34 14.488887
v -2.604723 34 14.772116
v -1.307336 34 14.94292
v -0.0 34 15.0
v 1.307336 34 14.94292
v 2.604723 34 14.772116
v 3.882286 34 14.488887
v 5.130302 34 14.095389
v 6.339274 34 13.594617
v 7.5 34 12.990381
v 8.603647 34 12.287281
v 9.641814 34 11.490667
v 10.606602 34 10.606602
v 11.490667 34 9.641814
v 12.287281 34 8.603647
v 12.990381 34 7.5
v 13.594617 34 6.339274
v 14.095389 34 5.130302
v 14.488887 34 3.882286
v 14.772116 34 2.604723
v 14.94292 34 1.307336
v 15.0 34 0.0
v 20.8 0 -6.3
v 45.0 0 -6.3
v 45.0 28.0 -6.3
v 20.8 28.0 -6.3
v 20.8 0 6.3
v 20.8 28.0 6.3
v 45.0 28.0 6.3
v 45.0 0 6.3
v 45.0 0 -6.3
v 45.0 0 6.3
v 45.0 28.0 6.3
v 45.0 28.0 -6.3
v 20.8 0 -6.3
v 20.8 28.0 -6.3
v 20.8 28.0 6.3
v 20.8 0 6.3
v 20.8 28.0 -6.3
v 45.0 28.0 -6.3
v 45.0 28.0 6.3
v 20.8 28.0 6.3
v 20.8 0 -6.3
v 20.8 0 6.3
v 45.0 0 6.3
v 45.0 0 -6.3
v 20.8 4 -6.3
v 45.0 4 -6.3
v 45.0 4 6.3
v 20.8 4 6.3
v 20.8 12 -6.3
v 45.0 12 -6.3
v 45.0 12 6.3
v 20.8 12 6.3
v 20.8 24 -6.3
v 45.0 24 -6.3
v 45.0 24 6.3
v 20.8 24 6.3
v -22.316802 0 5.564204
v -21.790123 0 7.361423
v -21.11897 0 9.109835
v -20.307795 0 10.797846
v -19.361974 0 12.414265
v -18.287778 0 13.948375
v -17.092331 0 15.390004
v -22.316802 38.0 5.564204
v -21.790123 38.0 7.361423
v -21.11897 38.0 9.109835
v -20.307795 38.0 10.797846
v -19.361974 38.0 12.414265
v -18.287778 38.0 13.948375
v -17.092331 38.0 15.390004
v -18.920767 0 4.717477
v -18.474235 0 6.241206
v -17.905214 0 7.723555
v -17.217478 0 9.154695
v -16.415586 0 10.525138
v -15.504856 0 11.825796
v -14.491324 0 13.048047
v -18.920767 38.0 4.717477
v -18.474235 38.0 6.241206
v -17.905214 38.0 7.723555
v -17.217478 38.0 9.154695
v -16.415586 38.0 10.525138
v -15.504856 38.0 11.825796
v -14.491324 38.0 13.048047
v -22.316802 0 5.564204
v -21.790123 0 7.361423
v -21.11897 0 9.109835
v -20.307795 0 10.797846
v -19.361974 0 12.414265
v -18.287778 0 13.948375
v -17.092331 0 15.390004
v -18.920767 0 4.717477
v -18.474235 0 6.241206
v -17.905214 0 7.723555
v -17.217478 0 9.154695
v -16.415586 0 10.525138
v -15.504856 0 11.825796
v -14.491324 0 13.048047
v -22.316802 38.0 5.564204
v -21.790123 38.0 7.361423
v -21.11897 38.0 9.109835
v -20.307795 38.0 10.797846
v -19.361974 38.0 12.414265
v -18.287778 38.0 13.948375
v -17.092331 38.0 15.390004
v -18.920767 38.0 4.717477
v -18.474235 38.0 6.241206
v -17.905214 38.0 7.723555
v -17.217478 38.0 9.154695
v -16.415586 38.0 10.525138
v -15.504856 38.0 11.825796
v -14.491324 38.0 13.048047
v -22.316802 0 5.564204
v -18.920767 0 4.717477
v -18.920767 38.0 4.717477
v -22.316802 38.0 5.564204
v -17.092331 0 15.390004
v -14.491324 0 13.048047
v -14.491324 38.0 13.048047
v -17.092331 38.0 15.390004
v 20.307795 0 -10.797846
v 19.361974 0 -12.414265
v 18.287778 0 -13.948375
v 17.092331 0 -15.390004
v 20.307795 38.0 -10.797846
v 19.361974 38.0 -12.414265
v 18.287778 38.0 -13.948375
v 17.092331 38.0 -15.390004
v 17.217478 0 -9.154695
v 16.415586 0 -10.525138
v 15.504856 0 -11.825796
v 14.491324 0 -13.048047
v 17.217478 38.0 -9.154695
v 16.415586 38.0 -10.525138
v 15.504856 38.0 -11.825796
v 14.491324 38.0 -13.048047
v 20.307795 0 -10.797846
v 19.361974 0 -12.414265
v 18.287778 0 -13.948375
v 17.092331 0 -15.390004
v 17.217478 0 -9.154695
v 16.415586 0 -10.525138
v 15.504856 0 -11.825796
v 14.491324 0 -13.048047
v 20.307795 38.0 -10.797846
v 19.361974 38.0 -12.414265
v 18.287778 38.0 -13.948375
v 17.092331 38.0 -15.390004
v 17.217478 38.0 -9.154695
v 16.415586 38.0 -10.525138
v 15.504856 38.0 -11.825796
v 14.491324 38.0 -13.048047
v 20.307795 0 -10.797846
v 17.217478 0 -9.154695
v 17.217478 38.0 -9.154695
v 20.307795 38.0 -10.797846
v 17.092331 0 -15.390004
v 14.491324 0 -13.048047
v 14.491324 38.0 -13.048047
v 17.092331 38.0 -15.390004

f 1 74 75 2
f 2 75 76 3
f 3 76 77 4
f 4 77 78 5
f 5 78 79 6
f 6 79 80 7
f 7 80 81 8
f 8 81 82 9
f 9 82 83 10
f 10 83 84 11
f 11 84 85 12
f 12 85 86 13
f 13 86 87 14
f 14 87 88 15
f 15 88 89 16
f 16 89 90 17
f 17 90 91 18
f 18 91 92 19
f 19 92 93 20
f 20 93 94 21
f 21 94 95 22
f 22 95 96 23
f 23 96 97 24
f 24 97 98 25
f 25 98 99 26
f 26 99 100 27
f 27 100 101 28
f 28 101 102 29
f 29 102 103 30
f 30 103 104 31
f 31 104 105 32
f 32 105 106 33
f 33 106 107 34
f 34 107 108 35
f 35 108 109 36
f 36 109 110 37
f 37 110 111 38
f 38 111 112 39
f 39 112 113 40
f 40 113 114 41
f 41 114 115 42
f 42 115 116 43
f 43 116 117 44
f 44 117 118 45
f 45 118 119 46
f 46 119 120 47
f 47 120 121 48
f 48 121 122 49
f 49 122 123 50
f 50 123 124 51
f 51 124 125 52
f 52 125 126 53
f 53 126 127 54
f 54 127 128 55
f 55 128 129 56
f 56 129 130 57
f 57 130 131 58
f 58 131 132 59
f 59 132 133 60
f 60 133 134 61
f 61 134 135 62
f 62 135 136 63
f 63 136 137 64
f 64 137 138 65
f 65 138 139 66
f 66 139 140 67
f 67 140 141 68
f 68 141 142 69
f 69 142 143 70
f 70 143 144 71
f 71 144 145 72
f 72 145 146 73
f 148 221 220 147
f 149 222 221 148
f 150 223 222 149
f 151 224 223 150
f 152 225 224 151
f 153 226 225 152
f 154 227 226 153
f 155 228 227 154
f 156 229 228 155
f 157 230 229 156
f 158 231 230 157
f 159 232 231 158
f 160 233 232 159
f 161 234 233 160
f 162 235 234 161
f 163 236 235 162
f 164 237 236 163
f 165 238 237 164
f 166 239 238 165
f 167 240 239 166
f 168 241 240 167
f 169 242 241 168
f 170 243 242 169
f 171 244 243 170
f 172 245 244 171
f 173 246 245 172
f 174 247 246 173
f 175 248 247 174
f 176 249 248 175
f 177 250 249 176
f 178 251 250 177
f 179 252 251 178
f 180 253 252 179
f 181 254 253 180
f 182 255 254 181
f 183 256 255 182
f 184 257 256 183
f 185 258 257 184
f 186 259 258 185
f 187 260 259 186
f 188 261 260 187
f 189 262 261 188
f 190 263 262 189
f 191 264 263 190
f 192 265 264 191
f 193 266 265 192
f 194 267 266 193
f 195 268 267 194
f 196 269 268 195
f 197 270 269 196
f 198 271 270 197
f 199 272 271 198
f 200 273 272 199
f 201 274 273 200
f 202 275 274 201
f 203 276 275 202
f 204 277 276 203
f 205 278 277 204
f 206 279 278 205
f 207 280 279 206
f 208 281 280 207
f 209 282 281 208
f 210 283 282 209
f 211 284 283 210
f 212 285 284 211
f 213 286 285 212
f 214 287 286 213
f 215 288 287 214
f 216 289 288 215
f 217 290 289 216
f 218 291 290 217
f 219 292 291 218
f 294 367 366 293
f 295 368 367 294
f 296 369 368 295
f 297 370 369 296
f 298 371 370 297
f 299 372 371 298
f 300 373 372 299
f 301 374 373 300
f 302 375 374 301
f 303 376 375 302
f 304 377 376 303
f 305 378 377 304
f 306 379 378 305
f 307 380 379 306
f 308 381 380 307
f 309 382 381 308
f 310 383 382 309
f 311 384 383 310
f 312 385 384 311
f 313 386 385 312
f 314 387 386 313
f 315 388 387 314
f 316 389 388 315
f 317 390 389 316
f 318 391 390 317
f 319 392 391 318
f 320 393 392 319
f 321 394 393 320
f 322 395 394 321
f 323 396 395 322
f 324 397 396 323
f 325 398 397 324
f 326 399 398 325
f 327 400 399 326
f 328 401 400 327
f 329 402 401 328
f 330 403 402 329
f 331 404 403 330
f 332 405 404 331
f 333 406 405 332
f 334 407 406 333
f 335 408 407 334
f 336 409 408 335
f 337 410 409 336
f 338 411 410 337
f 339 412 411 338
f 340 413 412 339
f 341 414 413 340
f 342 415 414 341
f 343 416 415 342
f 344 417 416 343
f 345 418 417 344
f 346 419 418 345
f 347 420 419 346
f 348 421 420 347
f 349 422 421 348
f 350 423 422 349
f 351 424 423 350
f 352 425 424 351
f 353 426 425 352
f 354 427 426 353
f 355 428 427 354
f 356 429 428 355
f 357 430 429 356
f 358 431 430 357
f 359 432 431 358
f 360 433 432 359
f 361 434 433 360
f 362 435 434 361
f 363 436 435 362
f 364 437 436 363
f 365 438 437 364
f 439 512 513 440
f 440 513 514 441
f 441 514 515 442
f 442 515 516 443
f 443 516 517 444
f 444 517 518 445
f 445 518 519 446
f 446 519 520 447
f 447 520 521 448
f 448 521 522 449
f 449 522 523 450
f 450 523 524 451
f 451 524 525 452
f 452 525 526 453
f 453 526 527 454
f 454 527 528 455
f 455 528 529 456
f 456 529 530 457
f 457 530 531 458
f 458 531 532 459
f 459 532 533 460
f 460 533 534 461
f 461 534 535 462
f 462 535 536 463
f 463 536 537 464
f 464 537 538 465
f 465 538 539 466
f 466 539 540 467
f 467 540 541 468
f 468 541 542 469
f 469 542 543 470
f 470 543 544 471
f 471 544 545 472
f 472 545 546 473
f 473 546 547 474
f 474 547 548 475
f 475 548 549 476
f 476 549 550 477
f 477 550 551 478
f 478 551 552 479
f 479 552 553 480
f 480 553 554 481
f 481 554 555 482
f 482 555 556 483
f 483 556 557 484
f 484 557 558 485
f 485 558 559 486
f 486 559 560 487
f 487 560 561 488
f 488 561 562 489
f 489 562 563 490
f 490 563 564 491
f 491 564 565 492
f 492 565 566 493
f 493 566 567 494
f 494 567 568 495
f 495 568 569 496
f 496 569 570 497
f 497 570 571 498
f 498 571 572 499
f 499 572 573 500
f 500 573 574 501
f 501 574 575 502
f 502 575 576 503
f 503 576 577 504
f 504 577 578 505
f 505 578 579 506
f 506 579 580 507
f 507 580 581 508
f 508 581 582 509
f 509 582 583 510
f 510 583 584 511
f 585 658 659 586
f 586 659 660 587
f 587 660 661 588
f 588 661 662 589
f 589 662 663 590
f 590 663 664 591
f 591 664 665 592
f 592 665 666 593
f 593 666 667 594
f 594 667 668 595
f 595 668 669 596
f 596 669 670 597
f 597 670 671 598
f 598 671 672 599
f 599 672 673 600
f 600 673 674 601
f 601 674 675 602
f 602 675 676 603
f 603 676 677 604
f 604 677 678 605
f 605 678 679 606
f 606 679 680 607
f 607 680 681 608
f 608 681 682 609
f 609 682 683 610
f 610 683 684 611
f 611 684 685 612
f 612 685 686 613
f 613 686 687 614
f 614 687 688 615
f 615 688 689 616
f 616 689 690 617
f 617 690 691 618
f 618 691 692 619
f 619 692 693 620
f 620 693 694 621
f 621 694 695 622
f 622 695 696 623
f 623 696 697 624
f 624 697 698 625
f 625 698 699 626
f 626 699 700 627
f 627 700 701 628
f 628 701 702 629
f 629 702 703 630
f 630 703 704 631
f 631 704 705 632
f 632 705 706 633
f 633 706 707 634
f 634 707 708 635
f 635 708 709 636
f 636 709 710 637
f 637 710 711 638
f 638 711 712 639
f 639 712 713 640
f 640 713 714 641
f 641 714 715 642
f 642 715 716 643
f 643 716 717 644
f 644 717 718 645
f 645 718 719 646
f 646 719 720 647
f 647 720 721 648
f 648 721 722 649
f 649 722 723 650
f 650 723 724 651
f 651 724 725 652
f 652 725 726 653
f 653 726 727 654
f 654 727 728 655
f 655 728 729 656
f 656 729 730 657
f 731 804 805 732
f 732 805 806 733
f 733 806 807 734
f 734 807 808 735
f 735 808 809 736
f 736 809 810 737
f 737 810 811 738
f 738 811 812 739
f 739 812 813 740
f 740 813 814 741
f 741 814 815 742
f 742 815 816 743
f 743 816 817 744
f 744 817 818 745
f 745 818 819 746
f 746 819 820 747
f 747 820 821 748
f 748 821 822 749
f 749 822 823 750
f 750 823 824 751
f 751 824 825 752
f 752 825 826 753
f 753 826 827 754
f 754 827 828 755
f 755 828 829 756
f 756 829 830 757
f 757 830 831 758
f 758 831 832 759
f 759 832 833 760
f 760 833 834 761
f 761 834 835 762
f 762 835 836 763
f 763 836 837 764
f 764 837 838 765
f 765 838 839 766
f 766 839 840 767
f 767 840 841 768
f 768 841 842 769
f 769 842 843 770
f 770 843 844 771
f 771 844 845 772
f 772 845 846 773
f 773 846 847 774
f 774 847 848 775
f 775 848 849 776
f 776 849 850 777
f 777 850 851 778
f 778 851 852 779
f 779 852 853 780
f 780 853 854 781
f 781 854 855 782
f 782 855 856 783
f 783 856 857 784
f 784 857 858 785
f 785 858 859 786
f 786 859 860 787
f 787 860 861 788
f 788 861 862 789
f 789 862 863 790
f 790 863 864 791
f 791 864 865 792
f 792 865 866 793
f 793 866 867 794
f 794 867 868 795
f 795 868 869 796
f 796 869 870 797
f 797 870 871 798
f 798 871 872 799
f 799 872 873 800
f 800 873 874 801
f 801 874 875 802
f 802 875 876 803
f 877 950 951 878
f 878 951 952 879
f 879 952 953 880
f 880 953 954 881
f 881 954 955 882
f 882 955 956 883
f 883 956 957 884
f 884 957 958 885
f 885 958 959 886
f 886 959 960 887
f 887 960 961 888
f 888 961 962 889
f 889 962 963 890
f 890 963 964 891
f 891 964 965 892
f 892 965 966 893
f 893 966 967 894
f 894 967 968 895
f 895 968 969 896
f 896 969 970 897
f 897 970 971 898
f 898 971 972 899
f 899 972 973 900
f 900 973 974 901
f 901 974 975 902
f 902 975 976 903
f 903 976 977 904
f 904 977 978 905
f 905 978 979 906
f 906 979 980 907
f 907 980 981 908
f 908 981 982 909
f 909 982 983 910
f 910 983 984 911
f 911 984 985 912
f 912 985 986 913
f 913 986 987 914
f 914 987 988 915
f 915 988 989 916
f 916 989 990 917
f 917 990 991 918
f 918 991 992 919
f 919 992 993 920
f 920 993 994 921
f 921 994 995 922
f 922 995 996 923
f 923 996 997 924
f 924 997 998 925
f 925 998 999 926
f 926 999 1000 927
f 927 1000 1001 928
f 928 1001 1002 929
f 929 1002 1003 930
f 930 1003 1004 931
f 931 1004 1005 932
f 932 1005 1006 933
f 933 1006 1007 934
f 934 1007 1008 935
f 935 1008 1009 936
f 936 1009 1010 937
f 937 1010 1011 938
f 938 1011 1012 939
f 939 1012 1013 940
f 940 1013 1014 941
f 941 1014 1015 942
f 942 1015 1016 943
f 943 1016 1017 944
f 944 1017 1018 945
f 945 1018 1019 946
f 946 1019 1020 947
f 947 1020 1021 948
f 948 1021 1022 949
f 1023 1096 1097 1024
f 1024 1097 1098 1025
f 1025 1098 1099 1026
f 1026 1099 1100 1027
f 1027 1100 1101 1028
f 1028 1101 1102 1029
f 1029 1102 1103 1030
f 1030 1103 1104 1031
f 1031 1104 1105 1032
f 1032 1105 1106 1033
f 1033 1106 1107 1034
f 1034 1107 1108 1035
f 1035 1108 1109 1036
f 1036 1109 1110 1037
f 1037 1110 1111 1038
f 1038 1111 1112 1039
f 1039 1112 1113 1040
f 1040 1113 1114 1041
f 1041 1114 1115 1042
f 1042 1115 1116 1043
f 1043 1116 1117 1044
f 1044 1117 1118 1045
f 1045 1118 1119 1046
f 1046 1119 1120 1047
f 1047 1120 1121 1048
f 1048 1121 1122 1049
f 1049 1122 1123 1050
f 1050 1123 1124 1051
f 1051 1124 1125 1052
f 1052 1125 1126 1053
f 1053 1126 1127 1054
f 1054 1127 1128 1055
f 1055 1128 1129 1056
f 1056 1129 1130 1057
f 1057 1130 1131 1058
f 1058 1131 1132 1059
f 1059 1132 1133 1060
f 1060 1133 1134 1061
f 1061 1134 1135 1062
f 1062 1135 1136 1063
f 1063 1136 1137 1064
f 1064 1137 1138 1065
f 1065 1138 1139 1066
f 1066 1139 1140 1067
f 1067 1140 1141 1068
f 1068 1141 1142 1069
f 1069 1142 1143 1070
f 1070 1143 1144 1071
f 1071 1144 1145 1072
f 1072 1145 1146 1073
f 1073 1146 1147 1074
f 1074 1147 1148 1075
f 1075 1148 1149 1076
f 1076 1149 1150 1077
f 1077 1150 1151 1078
f 1078 1151 1152 1079
f 1079 1152 1153 1080
f 1080 1153 1154 1081
f 1081 1154 1155 1082
f 1082 1155 1156 1083
f 1083 1156 1157 1084
f 1084 1157 1158 1085
f 1085 1158 1159 1086
f 1086 1159 1160 1087
f 1087 1160 1161 1088
f 1088 1161 1162 1089
f 1089 1162 1163 1090
f 1090 1163 1164 1091
f 1091 1164 1165 1092
f 1092 1165 1166 1093
f 1093 1166 1167 1094
f 1094 1167 1168 1095
f 1169 1242 1243 1170
f 1170 1243 1244 1171
f 1171 1244 1245 1172
f 1172 1245 1246 1173
f 1173 1246 1247 1174
f 1174 1247 1248 1175
f 1175 1248 1249 1176
f 1176 1249 1250 1177
f 1177 1250 1251 1178
f 1178 1251 1252 1179
f 1179 1252 1253 1180
f 1180 1253 1254 1181
f 1181 1254 1255 1182
f 1182 1255 1256 1183
f 1183 1256 1257 1184
f 1184 1257 1258 1185
f 1185 1258 1259 1186
f 1186 1259 1260 1187
f 1187 1260 1261 1188
f 1188 1261 1262 1189
f 1189 1262 1263 1190
f 1190 1263 1264 1191
f 1191 1264 1265 1192
f 1192 1265 1266 1193
f 1193 1266 1267 1194
f 1194 1267 1268 1195
f 1195 1268 1269 1196
f 1196 1269 1270 1197
f 1197 1270 1271 1198
f 1198 1271 1272 1199
f 1199 1272 1273 1200
f 1200 1273 1274 1201
f 1201 1274 1275 1202
f 1202 1275 1276 1203
f 1203 1276 1277 1204
f 1204 1277 1278 1205
f 1205 1278 1279 1206
f 1206 1279 1280 1207
f 1207 1280 1281 1208
f 1208 1281 1282 1209
f 1209 1282 1283 1210
f 1210 1283 1284 1211
f 1211 1284 1285 1212
f 1212 1285 1286 1213
f 1213 1286 1287 1214
f 1214 1287 1288 1215
f 1215 1288 1289 1216
f 1216 1289 1290 1217
f 1217 1290 1291 1218
f 1218 1291 1292 1219
f 1219 1292 1293 1220
f 1220 1293 1294 1221
f 1221 1294 1295 1222
f 1222 1295 1296 1223
f 1223 1296 1297 1224
f 1224 1297 1298 1225
f 1225 1298 1299 1226
f 1226 1299 1300 1227
f 1227 1300 1301 1228
f 1228 1301 1302 1229
f 1229 1302 1303 1230
f 1230 1303 1304 1231
f 1231 1304 1305 1232
f 1232 1305 1306 1233
f 1233 1306 1307 1234
f 1234 1307 1308 1235
f 1235 1308 1309 1236
f 1236 1309 1310 1237
f 1237 1310 1311 1238
f 1238 1311 1312 1239
f 1239 1312 1313 1240
f 1240 1313 1314 1241
f 1315 1388 1389 1316
f 1316 1389 1390 1317
f 1317 1390 1391 1318
f 1318 1391 1392 1319
f 1319 1392 1393 1320
f 1320 1393 1394 1321
f 1321 1394 1395 1322
f 1322 1395 1396 1323
f 1323 1396 1397 1324
f 1324 1397 1398 1325
f 1325 1398 1399 1326
f 1326 1399 1400 1327
f 1327 1400 1401 1328
f 1328 1401 1402 1329
f 1329 1402 1403 1330
f 1330 1403 1404 1331
f 1331 1404 1405 1332
f 1332 1405 1406 1333
f 1333 1406 1407 1334
f 1334 1407 1408 1335
f 1335 1408 1409 1336
f 1336 1409 1410 1337
f 1337 1410 1411 1338
f 1338 1411 1412 1339
f 1339 1412 1413 1340
f 1340 1413 1414 1341
f 1341 1414 1415 1342
f 1342 1415 1416 1343
f 1343 1416 1417 1344
f 1344 1417 1418 1345
f 1345 1418 1419 1346
f 1346 1419 1420 1347
f 1347 1420 1421 1348
f 1348 1421 1422 1349
f 1349 1422 1423 1350
f 1350 1423 1424 1351
f 1351 1424 1425 1352
f 1352 1425 1426 1353
f 1353 1426 1427 1354
f 1354 1427 1428 1355
f 1355 1428 1429 1356
f 1356 1429 1430 1357
f 1357 1430 1431 1358
f 1358 1431 1432 1359
f 1359 1432 1433 1360
f 1360 1433 1434 1361
f 1361 1434 1435 1362
f 1362 1435 1436 1363
f 1363 1436 1437 1364
f 1364 1437 1438 1365
f 1365 1438 1439 1366
f 1366 1439 1440 1367
f 1367 1440 1441 1368
f 1368 1441 1442 1369
f 1369 1442 1443 1370
f 1370 1443 1444 1371
f 1371 1444 1445 1372
f 1372 1445 1446 1373
f 1373 1446 1447 1374
f 1374 1447 1448 1375
f 1375 1448 1449 1376
f 1376 1449 1450 1377
f 1377 1450 1451 1378
f 1378 1451 1452 1379
f 1379 1452 1453 1380
f 1380 1453 1454 1381
f 1381 1454 1455 1382
f 1382 1455 1456 1383
f 1383 1456 1457 1384
f 1384 1457 1458 1385
f 1385 1458 1459 1386
f 1386 1459 1460 1387
f 1461 1462 1463 1464
f 1465 1466 1467 1468
f 1469 1470 1471 1472
f 1473 1474 1475 1476
f 1477 1478 1479 1480
f 1481 1482 1483 1484
f 1485 1486 1487 1488
f 1489 1490 1491 1492
f 1493 1494 1495 1496
f 1497 1504 1505 1498
f 1498 1505 1506 1499
f 1499 1506 1507 1500
f 1500 1507 1508 1501
f 1501 1508 1509 1502
f 1502 1509 1510 1503
f 1512 1519 1518 1511
f 1513 1520 1519 1512
f 1514 1521 1520 1513
f 1515 1522 1521 1514
f 1516 1523 1522 1515
f 1517 1524 1523 1516
f 1526 1533 1532 1525
f 1527 1534 1533 1526
f 1528 1535 1534 1527
f 1529 1536 1535 1528
f 1530 1537 1536 1529
f 1531 1538 1537 1530
f 1539 1546 1547 1540
f 1540 1547 1548 1541
f 1541 1548 1549 1542
f 1542 1549 1550 1543
f 1543 1550 1551 1544
f 1544 1551 1552 1545
f 1553 1556 1555 1554
f 1557 1560 1559 1558
f 1561 1565 1566 1562
f 1562 1566 1567 1563
f 1563 1567 1568 1564
f 1570 1574 1573 1569
f 1571 1575 1574 1570
f 1572 1576 1575 1571
f 1578 1582 1581 1577
f 1579 1583 1582 1578
f 1580 1584 1583 1579
f 1585 1589 1590 1586
f 1586 1590 1591 1587
f 1587 1591 1592 1588
f 1593 1596 1595 1594
f 1597 1600 1599 1598
